<?xml version="1.0" encoding="UTF-8"?>
<svg id="logo" data-name="logo" xmlns="http://www.w3.org/2000/svg" viewBox="0 0 108.84 33.39">
  <defs>
    <style>
      .cls-1 {
        fill: #fff;
        stroke-width: 2px;
      }

      .cls-1, .cls-2 {
        stroke: #7885ec;
        stroke-linecap: round;
        stroke-linejoin: round;
      }

      .cls-3 {
        fill: #7885ec;
        stroke-width: 0px;
      }

      .cls-2 {
        fill: none;
        stroke-width: 4px;
      }
    </style>
  </defs>
  <g id="logo_g" data-name="yuto_logo">
    <g>
      <path class="cls-2" d="M11.9,31.39l1.86-26.68c0-2.41,2.74-3.62,4.34-1.92l4.67,4.97c.48.51,1.12.79,1.8.79h14.46c.67,0,1.32-.29,1.8-.79l4.67-4.97c1.6-1.71,4.34-.5,4.34,1.92l2.36,26.68"/>
      <circle class="cls-1" cx="25.03" cy="20.14" r="1.98"/>
      <circle class="cls-1" cx="38.54" cy="20.14" r="1.98"/>
      <path class="cls-3" d="M57.99,6.77c.74,0,1.42.4,1.75,1.04l3.18,6.01h.14l3.18-6.01c.34-.64,1.01-1.04,1.75-1.04h0c1.5,0,2.45,1.56,1.73,2.83l-4.45,7.84c-.16.28-.24.6-.24.92v3.27c0,1.06-.88,1.91-1.97,1.91h-.12c-1.09,0-1.97-.86-1.97-1.91v-3.27c0-.32-.08-.64-.25-.93l-4.47-7.83c-.73-1.27.22-2.84,1.72-2.84h.02Z"/>
      <path class="cls-3" d="M81,12.41c1.09,0,1.98.88,1.98,1.97v8.85c0,3.75-2.87,6.18-7.11,6.19-4.28-.01-7.11-2.43-7.11-6.19v-8.85c0-1.09.89-1.97,1.98-1.97h0c1.09,0,1.98.88,1.98,1.97v8.53c0,1.77,1.27,3.06,3.15,3.06s3.14-1.29,3.13-3.06v-8.53c0-1.09.89-1.97,1.98-1.97h.02Z"/>
      <path class="cls-3" d="M82.41,6.77h11.23c.92,0,1.66.72,1.66,1.61h0c0,.89-.74,1.61-1.66,1.61h-1.94c-.92,0-1.66.72-1.66,1.61v10.34c0,.89-.74,1.61-1.66,1.61h-.72c-.92,0-1.66-.72-1.66-1.61v-10.34c0-.89-.74-1.61-1.66-1.61h-1.94c-.92,0-1.66-.72-1.66-1.61h0c0-.89.74-1.61,1.66-1.61Z"/>
      <path class="cls-3" d="M100.81,29.54c-4.55,0-8.02-3.12-8.02-8.62s3.48-8.62,8.02-8.62,8.04,3.08,8.02,8.62c.01,5.53-3.5,8.62-8.02,8.62ZM100.81,26.06c2.47,0,3.98-1.81,3.97-5.14.01-3.34-1.49-5.16-3.97-5.14-2.46-.01-3.97,1.81-3.97,5.14s1.5,5.14,3.97,5.14Z"/>
      <line class="cls-2" x1="12.46" y1="23.31" x2="2" y2="23.31"/>
      <line class="cls-2" x1="6.8" y1="28.77" x2="12.08" y2="28.77"/>
    </g>
  </g>
</svg>