<svg width="109" height="34" viewBox="0 0 109 34" fill="none" xmlns="http://www.w3.org/2000/svg">
<g clip-path="url(#clip0_73_122)">
<path d="M11.8999 31.3899L13.7599 4.70995C13.7599 2.29995 16.4999 1.08995 18.0999 2.78995L22.7699 7.75995C23.2499 8.26995 23.8899 8.54995 24.5699 8.54995H39.0299C39.6999 8.54995 40.3499 8.25995 40.8299 7.75995L45.4999 2.78995C47.0999 1.07995 49.8399 2.28995 49.8399 4.70995L52.1999 31.3899" stroke="#55565C" stroke-width="4" stroke-linecap="round" stroke-linejoin="round"/>
<path d="M25.0298 22.1199C26.1233 22.1199 27.0098 21.2334 27.0098 20.1399C27.0098 19.0464 26.1233 18.1599 25.0298 18.1599C23.9363 18.1599 23.0498 19.0464 23.0498 20.1399C23.0498 21.2334 23.9363 22.1199 25.0298 22.1199Z" fill="white" stroke="#55565C" stroke-width="2" stroke-linecap="round" stroke-linejoin="round"/>
<path d="M38.5401 22.1199C39.6336 22.1199 40.5201 21.2334 40.5201 20.1399C40.5201 19.0464 39.6336 18.1599 38.5401 18.1599C37.4465 18.1599 36.5601 19.0464 36.5601 20.1399C36.5601 21.2334 37.4465 22.1199 38.5401 22.1199Z" fill="white" stroke="#55565C" stroke-width="2" stroke-linecap="round" stroke-linejoin="round"/>
<path d="M57.99 6.77001C58.73 6.77001 59.41 7.17001 59.74 7.81001L62.92 13.82H63.06L66.24 7.81001C66.58 7.17001 67.25 6.77001 67.99 6.77001C69.49 6.77001 70.44 8.33001 69.72 9.60001L65.27 17.44C65.11 17.72 65.03 18.04 65.03 18.36V21.63C65.03 22.69 64.15 23.54 63.06 23.54H62.94C61.85 23.54 60.97 22.68 60.97 21.63V18.36C60.97 18.04 60.89 17.72 60.72 17.43L56.25 9.60001C55.52 8.33001 56.47 6.76001 57.97 6.76001H57.99V6.77001Z" fill="#55565C"/>
<path d="M80.9998 12.4099C82.0898 12.4099 82.9798 13.2899 82.9798 14.3799V23.2299C82.9798 26.9799 80.1098 29.4099 75.8698 29.4199C71.5898 29.4099 68.7598 26.9899 68.7598 23.2299V14.3799C68.7598 13.2899 69.6498 12.4099 70.7398 12.4099C71.8298 12.4099 72.7198 13.2899 72.7198 14.3799V22.9099C72.7198 24.6799 73.9898 25.9699 75.8698 25.9699C77.7498 25.9699 79.0098 24.6799 78.9998 22.9099V14.3799C78.9998 13.2899 79.8898 12.4099 80.9798 12.4099H80.9998Z" fill="#55565C"/>
<path d="M82.4102 6.77002H93.6402C94.5602 6.77002 95.3002 7.49002 95.3002 8.38002C95.3002 9.27002 94.5602 9.99002 93.6402 9.99002H91.7002C90.7802 9.99002 90.0402 10.71 90.0402 11.6V21.94C90.0402 22.83 89.3002 23.55 88.3802 23.55H87.6602C86.7402 23.55 86.0002 22.83 86.0002 21.94V11.6C86.0002 10.71 85.2602 9.99002 84.3402 9.99002H82.4002C81.4802 9.99002 80.7402 9.27002 80.7402 8.38002C80.7402 7.49002 81.4802 6.77002 82.4002 6.77002H82.4102Z" fill="#55565C"/>
<path d="M100.81 29.5401C96.26 29.5401 92.79 26.42 92.79 20.92C92.79 15.42 96.27 12.3 100.81 12.3C105.35 12.3 108.85 15.38 108.83 20.92C108.84 26.45 105.33 29.5401 100.81 29.5401ZM100.81 26.06C103.28 26.06 104.79 24.25 104.78 20.92C104.79 17.58 103.29 15.76 100.81 15.78C98.35 15.77 96.84 17.59 96.84 20.92C96.84 24.25 98.34 26.06 100.81 26.06Z" fill="#55565C"/>
<path d="M12.46 23.3101H2" stroke="#55565C" stroke-width="4" stroke-linecap="round" stroke-linejoin="round"/>
<path d="M6.7998 28.77H12.0798" stroke="#55565C" stroke-width="4" stroke-linecap="round" stroke-linejoin="round"/>
</g>
<defs>
<clipPath id="clip0_73_122">
<rect width="108.84" height="33.39" fill="white"/>
</clipPath>
</defs>
</svg>
